<svg width="117" height="30" viewBox="0 0 117 30" fill="none" xmlns="http://www.w3.org/2000/svg">
<path d="M34.4055 6.58552C33.3827 6.67654 27.4386 7.04276 24.9726 7.24863C24.1296 7.31797 23.4773 8.17394 23.434 9.01907C23.434 9.01907 22.487 23.7027 22.2746 26.0626C22.0211 28.8667 20.5649 29.5839 19.191 29.5839C17.7586 29.5839 16.3305 28.7995 16.0792 26.0366C15.8928 23.9779 15.2644 16.9633 14.7595 10.1351C14.6706 8.93239 14.5601 8.1176 12.3476 8.1176C11.1059 8.1176 4.60922 8.61384 4.47053 8.61817C2.83877 8.66585 0 7.76437 0 4.22566C0 0.981653 2.63941 0.279543 4.89309 0.279543C6.76972 0.279543 32.7564 0.799624 34.3795 0.944814C37.1403 1.19619 37.812 2.30569 37.812 3.73808C37.8142 5.11196 37.2096 6.33198 34.4055 6.58552ZM112.242 11.7365C109.572 11.7365 101.34 11.7993 96.0698 11.8123C93.5127 11.821 92.8756 13.1906 92.8756 14.3282C92.8756 15.3164 93.5604 16.5949 95.9463 16.7206C99.5803 16.9135 104.203 17.128 106.337 17.2363C109.21 17.3837 109.249 18.8616 108.279 20.1271C106.328 22.6647 101.583 24.329 96.6592 24.329C90.221 24.329 83.1414 20.6667 83.1414 14.8635C83.1414 9.41996 89.2025 3.4217 107.213 5.95276C108.794 6.17379 110.353 5.88992 110.743 4.42502C111.156 2.86911 110.144 1.86796 108.099 1.32837C104.014 0.253539 100.293 0 96.7372 0C84.6172 0 74.8982 5.78807 74.8982 15.1365C74.8982 25.1177 84.5825 30 96.6527 30C110.134 30 116.7 22.6625 116.7 16.2482C116.7 12.9825 115.038 11.7365 112.242 11.7365ZM72.1352 23.4752C73.5329 25.3063 73.5178 27.1547 72.4711 28.2014C71.0365 29.6359 68.8479 29.1419 67.799 28.0909L64.6244 24.6778C64.1281 24.1426 63.4304 23.8392 62.7001 23.8392H42.7138C41.9835 23.8392 41.2858 24.1448 40.7873 24.68L37.6214 28.093C36.5704 29.1419 34.4705 29.753 33.0836 28.3661C32.037 27.3194 31.8571 25.3063 33.2548 23.4752L48.5756 2.86261C48.5756 2.86261 50.1271 0.734614 52.682 0.734614C55.2369 0.734614 56.8123 2.86261 56.8123 2.86261L72.1352 23.4752ZM58.3769 17.3599L54.563 12.8373C53.5683 11.7213 51.8239 11.7213 50.8292 12.8373L47.0218 17.3599C46.6968 17.7109 46.946 18.2808 47.4227 18.2808H57.976C58.4549 18.2808 58.702 17.7109 58.3769 17.3599Z" fill="white"/>
</svg>
